<?xml version="1.0" encoding="UTF-8"?>
<!-- Simplified world land overlay (pseudo 110m) for fast rendering -->
<svg xmlns="http://www.w3.org/2000/svg" viewBox="0 0 360 180" width="360" height="180">
  <defs>
    <linearGradient id="landFill" x1="0" y1="0" x2="1" y2="1">
      <stop offset="0%" stop-color="#27608a"/>
      <stop offset="100%" stop-color="#2a6f9e"/>
    </linearGradient>
  </defs>
  <rect width="360" height="180" fill="none"/>
  <!-- North America -->
  <path fill="url(#landFill)" d="M55,28 C62,24 78,22 92,25 C105,28 106,36 112,42 C118,48 124,55 125,62 C126,70 118,76 114,82 C110,88 110,95 103,98 C96,101 90,98 84,96 C78,94 70,92 66,88 C62,84 60,78 56,72 C52,66 46,62 46,56 C46,49 48,33 55,28 Z"/>
  <!-- South America -->
  <path fill="url(#landFill)" d="M112,86 C118,90 122,98 124,104 C126,110 124,116 122,122 C120,128 118,134 114,138 C110,142 104,144 100,146 C96,148 92,146 92,142 C92,138 95,134 96,130 C98,126 98,122 98,118 C98,114 96,110 94,106 C92,102 92,98 94,94 C96,90 104,86 112,86 Z"/>
  <!-- Europe -->
  <path fill="url(#landFill)" d="M185,40 C192,38 200,38 206,40 C212,42 214,46 214,50 C214,54 210,56 207,58 C204,60 200,62 198,66 C196,70 196,74 192,76 C188,78 184,76 182,72 C180,68 180,64 180,60 C180,56 180,44 185,40 Z"/>
  <!-- Africa -->
  <path fill="url(#landFill)" d="M198,68 C204,66 210,66 216,70 C220,74 224,80 224,86 C224,92 220,96 216,100 C212,104 208,108 204,110 C200,112 196,112 194,108 C192,104 192,98 192,92 C192,86 192,80 194,76 C196,72 194,70 198,68 Z"/>
  <!-- Middle East / West Asia -->
  <path fill="url(#landFill)" d="M220,66 C226,64 232,64 238,66 C242,68 246,70 246,74 C246,78 242,80 238,82 C234,84 230,86 226,86 C222,86 218,84 218,80 C218,76 218,68 220,66 Z"/>
  <!-- Asia -->
  <path fill="url(#landFill)" d="M240,50 C250,46 262,46 272,50 C282,54 290,60 296,66 C300,70 302,76 300,80 C298,84 292,84 288,84 C284,84 280,84 276,86 C272,88 268,92 264,92 C260,92 256,90 254,86 C252,82 252,78 252,74 C252,70 250,66 246,62 C242,58 238,54 240,50 Z"/>
  <!-- Japan / Korea -->
  <path fill="url(#landFill)" d="M302,64 C306,62 310,62 312,64 C314,66 314,70 312,72 C310,74 306,74 304,72 C302,70 300,66 302,64 Z"/>
  <!-- Southeast Asia -->
  <path fill="url(#landFill)" d="M268,96 C272,94 278,96 282,98 C286,100 288,104 286,108 C284,112 280,114 276,114 C272,114 268,112 266,108 C264,104 264,98 268,96 Z"/>
  <!-- Australia -->
  <path fill="url(#landFill)" d="M300,124 C306,122 314,124 320,128 C326,132 326,140 320,144 C314,148 306,148 300,146 C294,144 290,138 292,132 C294,128 296,126 300,124 Z"/>
  <!-- Greenland -->
  <path fill="url(#landFill)" d="M142,18 C146,16 152,16 156,18 C160,20 160,24 158,28 C156,32 150,34 146,32 C142,30 140,22 142,18 Z"/>
  <!-- Antarctica (hint) -->
  <path fill="url(#landFill)" opacity="0.6" d="M40,164 C80,164 120,168 180,168 C240,168 280,164 320,164 C312,172 292,176 260,176 C220,176 180,176 140,176 C96,176 64,174 40,170 Z"/>
</svg>

